<svg xmlns="http://www.w3.org/2000/svg" version="1.1" xmlns:xlink="http://www.w3.org/1999/xlink" xmlns:svgjs="http://svgjs.dev/svgjs" width="2000" height="1500" viewBox="0 0 2000 1500"><rect width="2000" height="1500" fill="#ffffff"></rect><g transform="matrix(0.75,0,0,0.75,249.78667664670684,-0.21332335329350371)"><svg viewBox="0 0 334 334" data-background-color="#ffffff" preserveAspectRatio="xMidYMid meet" height="2000" width="2000" xmlns="http://www.w3.org/2000/svg" xmlns:xlink="http://www.w3.org/1999/xlink"><g id="tight-bounds" transform="matrix(1,0,0,1,0.04749999999998522,0.04750000000001364)"><svg viewBox="0 0 333.90454557049503 333.90454557049503" height="333.90454557049503" width="333.90454557049503"><g><svg></svg></g><g><svg viewBox="0 0 333.90454557049503 333.90454557049503" height="333.90454557049503" width="333.90454557049503"><g><path d="M0 166.952c0-92.205 74.747-166.952 166.952-166.952 92.205 0 166.952 74.747 166.953 166.952 0 92.205-74.747 166.952-166.953 166.953-92.205 0-166.952-74.747-166.952-166.953zM166.952 324.203c86.847 0 157.251-70.404 157.251-157.251 0-86.847-70.404-157.251-157.251-157.251-86.847 0-157.251 70.404-157.251 157.251 0 86.847 70.404 157.251 157.251 157.251z" data-fill-palette-color="tertiary" fill="#000000" stroke="transparent"></path><ellipse rx="160.27418187383762" ry="160.27418187383762" cx="166.95227278524752" cy="166.95227278524752" fill="#000000" stroke="transparent" stroke-width="0" fill-opacity="1" data-fill-palette-color="tertiary"></ellipse></g><g transform="matrix(1,0,0,1,132.52876555813197,71.17305217166896)"><svg viewBox="0 0 68.8470144542311 191.55844122715712" height="191.55844122715712" width="68.8470144542311"><g><svg viewBox="0 0 68.8470144542311 191.55844122715712" height="191.55844122715712" width="68.8470144542311"><g><svg viewBox="0 0 122.59740238538056 341.11235593308686" height="191.55844122715712" width="68.8470144542311"><g transform="matrix(1,0,0,1,0,149.55391470592974)"><svg viewBox="0 0 122.59740238538056 191.55844122715712" height="191.55844122715712" width="122.59740238538056"><g id="textblocktransform"><svg viewBox="0 0 122.59740238538056 191.55844122715712" height="191.55844122715712" width="122.59740238538056" id="textblock"><g><svg viewBox="0 0 122.59740238538056 191.55844122715712" height="191.55844122715712" width="122.59740238538056"><g transform="matrix(1,0,0,1,0,0)"><svg width="122.59740238538056" viewBox="3.03 -31.35 20.309999999999995 31.740000000000002" height="191.55844122715712" data-palette-color="#ffffff"><path d="M10.69-2.61Q11.77-2.34 13.18-2.34 14.6-2.34 15.67-2.61 16.75-2.88 17.49-3.3 18.24-3.71 18.75-4.5 19.26-5.3 19.54-6.07 19.82-6.84 19.98-8.11 20.14-9.38 20.18-10.44 20.21-11.5 20.21-13.18L20.21-13.18 20.21-31.35 23.34-31.35 23.34-15.5Q23.34-13.4 23.29-11.93 23.24-10.45 23.08-8.8 22.92-7.15 22.61-6.04 22.29-4.93 21.79-3.81 21.29-2.69 20.53-1.98 19.78-1.27 18.75-0.7 17.72-0.12 16.33 0.13 14.94 0.39 13.18 0.39 11.43 0.39 10.03 0.13 8.64-0.12 7.62-0.7 6.59-1.27 5.83-1.98 5.08-2.69 4.58-3.81 4.08-4.93 3.76-6.04 3.44-7.15 3.28-8.8 3.13-10.45 3.08-11.93 3.03-13.4 3.03-15.5L3.03-15.5 3.03-31.35 6.15-31.35 6.15-13.18Q6.15-11.5 6.19-10.44 6.23-9.38 6.38-8.11 6.54-6.84 6.82-6.07 7.1-5.3 7.62-4.5 8.13-3.71 8.87-3.3 9.62-2.88 10.69-2.61Z" opacity="1" transform="matrix(1,0,0,1,0,0)" fill="#ffffff" class="wordmark-text-0" data-fill-palette-color="quaternary" id="text-0"></path></svg></g></svg></g></svg></g></svg></g><g transform="matrix(1,0,0,1,23.416103855607687,0)"><svg viewBox="0 0 75.76519467416519 104.33156413478739" height="104.33156413478739" width="75.76519467416519"><g><svg xmlns="http://www.w3.org/2000/svg" xmlns:xlink="http://www.w3.org/1999/xlink" version="1.1" x="0" y="0" viewBox="20.9521484 10 58.095703099999994 80" style="enable-background:new 0 0 100 100;" xml:space="preserve" height="104.33156413478739" width="75.76519467416519" class="icon-icon-0" data-fill-palette-color="quaternary" id="icon-0"><g fill="#ffffff" data-fill-palette-color="quaternary"><path d="M38.204 73.329c-2.516 0-4.562 2.047-4.561 4.563v2.696c-1.504 0.245-2.659 1.542-2.66 3.115V89c0 0.553 0.447 1 1 1h36.034c0.553 0 1-0.447 1-1v-5.297c0-1.573-1.155-2.87-2.66-3.115v-2.696c0-2.516-2.046-4.563-4.561-4.563h-0.049l-3.381-20.037h0.419c1.411 0 2.56-1.148 2.56-2.56v-3.399c0-0.86-0.43-1.618-1.083-2.083 1.901-2.34 2.943-5.225 2.943-8.295C63.205 29.674 57.281 23.75 50 23.75s-13.205 5.924-13.205 13.205c0 3.069 1.041 5.955 2.943 8.295-0.653 0.464-1.082 1.223-1.083 2.083v3.399c0 1.411 1.148 2.56 2.56 2.56h0.419l-3.381 20.037H38.204zM67.017 83.703V88H32.983v-4.297c0-0.643 0.523-1.166 1.166-1.166h31.702C66.493 82.537 67.017 83.061 67.017 83.703zM64.357 77.892v2.645H35.643v-2.645c0-1.413 1.149-2.563 2.561-2.563h23.592C63.208 75.329 64.357 76.479 64.357 77.892zM50 25.75c6.179 0 11.205 5.026 11.205 11.205 0 2.959-1.139 5.715-3.196 7.818H41.991c-2.057-2.103-3.196-4.86-3.196-7.818C38.795 30.776 43.821 25.75 50 25.75zM40.655 50.732v-3.399c0-0.309 0.251-0.56 0.56-0.56h17.57c0.309 0 0.56 0.251 0.56 0.56v3.399c0 0.309-0.251 0.56-0.56 0.56H41.215C40.906 51.292 40.655 51.041 40.655 50.732zM43.663 53.292h12.674l3.381 20.037H40.282L43.663 53.292z" fill="#ffffff" data-fill-palette-color="quaternary"></path><path d="M51 13.671V11c0-0.553-0.447-1-1-1s-1 0.447-1 1v2.671c0 0.553 0.447 1 1 1S51 14.224 51 13.671z" fill="#ffffff" data-fill-palette-color="quaternary"></path><path d="M40.289 16.603c0.128 0 0.258-0.024 0.383-0.077 0.51-0.211 0.752-0.796 0.541-1.306l-1.023-2.468c-0.211-0.511-0.799-0.75-1.306-0.541-0.51 0.211-0.752 0.796-0.541 1.307l1.022 2.467C39.524 16.37 39.897 16.603 40.289 16.603z" fill="#ffffff" data-fill-palette-color="quaternary"></path><path d="M31.349 21.811c0.195 0.195 0.451 0.293 0.707 0.293s0.512-0.098 0.707-0.293c0.391-0.391 0.391-1.023 0-1.415l-1.889-1.888c-0.391-0.391-1.023-0.391-1.414 0s-0.391 1.023 0 1.414L31.349 21.811z" fill="#ffffff" data-fill-palette-color="quaternary"></path><path d="M26.938 28.413l-2.468-1.022c-0.508-0.21-1.096 0.03-1.307 0.541s0.031 1.096 0.541 1.306l2.468 1.023c0.125 0.052 0.255 0.076 0.383 0.076 0.392 0 0.765-0.232 0.924-0.617C27.689 29.209 27.447 28.624 26.938 28.413z" fill="#ffffff" data-fill-palette-color="quaternary"></path><path d="M20.952 39.048c0 0.553 0.447 1 1 1h2.671c0.553 0 1-0.447 1-1s-0.447-1-1-1h-2.671C21.399 38.048 20.952 38.495 20.952 39.048z" fill="#ffffff" data-fill-palette-color="quaternary"></path><path d="M26.172 47.835l-2.468 1.022c-0.51 0.211-0.752 0.796-0.541 1.307 0.159 0.385 0.532 0.617 0.924 0.617 0.128 0 0.258-0.024 0.383-0.076L26.938 49.683c0.51-0.211 0.752-0.796 0.541-1.307C27.268 47.866 26.68 47.625 26.172 47.835z" fill="#ffffff" data-fill-palette-color="quaternary"></path><path d="M29.46 59.588c0.195 0.195 0.451 0.293 0.707 0.293s0.512-0.098 0.707-0.293l1.889-1.889c0.391-0.391 0.391-1.023 0-1.414s-1.023-0.391-1.414 0l-1.889 1.889C29.069 58.564 29.069 59.197 29.46 59.588z" fill="#ffffff" data-fill-palette-color="quaternary"></path><path d="M67.237 57.699l1.889 1.889c0.195 0.195 0.451 0.293 0.707 0.293s0.512-0.098 0.707-0.293c0.391-0.391 0.391-1.023 0-1.414l-1.889-1.889c-0.391-0.391-1.023-0.391-1.414 0S66.847 57.309 67.237 57.699z" fill="#ffffff" data-fill-palette-color="quaternary"></path><path d="M73.063 49.683l2.467 1.022c0.125 0.052 0.255 0.076 0.383 0.076 0.392 0 0.765-0.232 0.924-0.617 0.211-0.511-0.031-1.096-0.541-1.307l-2.468-1.022c-0.509-0.21-1.096 0.03-1.307 0.541S72.553 49.472 73.063 49.683z" fill="#ffffff" data-fill-palette-color="quaternary"></path><path d="M74.377 39.048c0 0.553 0.447 1 1 1h2.671c0.553 0 1-0.447 1-1s-0.447-1-1-1h-2.671C74.824 38.048 74.377 38.495 74.377 39.048z" fill="#ffffff" data-fill-palette-color="quaternary"></path><path d="M75.53 27.391L73.063 28.413c-0.51 0.211-0.752 0.796-0.542 1.307 0.159 0.385 0.532 0.617 0.924 0.617 0.128 0 0.258-0.024 0.383-0.076l2.468-1.023c0.51-0.211 0.752-0.796 0.541-1.306C76.626 27.422 76.039 27.181 75.53 27.391z" fill="#ffffff" data-fill-palette-color="quaternary"></path><path d="M67.944 22.104c0.256 0 0.512-0.098 0.707-0.293l1.889-1.889c0.391-0.391 0.391-1.023 0-1.414s-1.023-0.391-1.414 0l-1.889 1.888c-0.391 0.391-0.391 1.023 0 1.415C67.433 22.006 67.688 22.104 67.944 22.104z" fill="#ffffff" data-fill-palette-color="quaternary"></path><path d="M59.711 16.603c0.392 0 0.765-0.232 0.924-0.618l1.022-2.467c0.211-0.511-0.031-1.096-0.541-1.307-0.507-0.21-1.096 0.03-1.306 0.541l-1.023 2.468c-0.211 0.511 0.031 1.096 0.541 1.306C59.453 16.578 59.583 16.603 59.711 16.603z" fill="#ffffff" data-fill-palette-color="quaternary"></path></g></svg></g></svg></g><g></g></svg></g></svg></g></svg></g></svg></g><defs></defs></svg><rect width="333.90454557049503" height="333.90454557049503" fill="none" stroke="none" visibility="hidden"></rect></g></svg></g></svg>